<?xml version="1.0" encoding="utf-8"?>
<!-- Generator: Adobe Illustrator 26.5.0, SVG Export Plug-In . SVG Version: 6.00 Build 0)  -->
<svg version="1.1" id="Layer_1" xmlns="http://www.w3.org/2000/svg" xmlns:xlink="http://www.w3.org/1999/xlink" x="0px" y="0px"
	 viewBox="0 0 1729 687.27" style="enable-background:new 0 0 1729 687.27;" xml:space="preserve">
<style type="text/css">
	.st0{fill:#0069FF;}
</style>
<path class="st0" d="M1718.84,65.83c-0.49-0.34-1.17-0.22-1.52,0.28c-146.36,212.49-313.1,373.74-495.59,479.27
	C1068.71,633.88,906.07,681,751.41,681.65c-92.39,0.43-180.61-16.08-255.05-47.61c-70.42-29.83-125.96-71.72-160.62-121.14
	c-33.62-47.94-57.95-95.13-72.75-140.96c1.64,0.76,3.28,1.5,4.92,2.24c96.02,42.79,203.39,41.36,319.12-4.25
	c64.35-25.36,111.82-58.57,141.09-98.72c25.69-35.24,36.06-74.74,29.99-114.24c-5.94-38.69-27.54-75.34-60.82-103.18
	C663.2,25.25,618.58,7.71,571.66,4.39c-61.82-4.37-122.17,6.3-174.51,30.87c-52.97,24.87-94.96,62.73-121.42,109.49
	c-27.16,47.99-37.11,102.68-29.57,162.55c2.5,19.87,6.93,40.07,13.25,60.54c-37.5-18-73.27-42.96-106.45-74.3
	c-28.77-27.18-55.67-59.19-79.95-95.14C31.66,137.16,11.99,85.02,11.79,84.5c-0.21-0.56-0.84-0.85-1.4-0.64
	c-0.56,0.21-0.85,0.84-0.64,1.4c0.19,0.52,19.93,52.86,61.43,114.31c24.37,36.09,51.38,68.23,80.26,95.53
	c33.89,32.02,70.48,57.42,108.86,75.59c14.8,46.65,39.44,94.68,73.65,143.47c34.89,49.75,90.75,91.9,161.55,121.89
	c73.85,31.29,161.16,47.79,252.71,47.79c1.06,0,2.14,0,3.2-0.01c155.04-0.65,318.06-47.87,471.42-136.57
	c182.77-105.7,349.74-267.17,496.29-479.92C1719.47,66.85,1719.34,66.17,1718.84,65.83z M248.32,307.03
	c-7.48-59.39,2.38-113.63,29.3-161.21c26.24-46.37,67.89-83.92,120.45-108.59C450.08,12.82,510.05,2.22,571.5,6.56
	c46.47,3.29,90.64,20.65,124.39,48.89c32.87,27.51,54.2,63.67,60.06,101.84c5.98,38.92-4.26,77.87-29.6,112.63
	c-29.02,39.81-76.16,72.77-140.13,97.98c-115.16,45.38-221.95,46.82-317.42,4.29c-2.25-1-4.48-2.03-6.72-3.08
	C255.49,348.12,250.89,327.4,248.32,307.03z"/>
</svg>
